<?xml version="1.0" encoding="UTF-8" ?>
<!DOCTYPE svg PUBLIC "-//W3C//DTD SVG 1.1//EN" "http://www.w3.org/Graphics/SVG/1.1/DTD/svg11.dtd">
<svg width="48pt" height="48pt" viewBox="0 0 48 48" version="1.1" xmlns="http://www.w3.org/2000/svg">
<g id="#3a589bff">
<path fill="#3a589b" opacity="1.00" d=" M 20.82 0.00 L 26.69 0.00 C 37.49 1.15 46.50 10.13 48.00 20.82 L 48.00 26.71 C 46.84 37.49 37.87 46.50 27.18 48.00 L 21.35 48.00 C 10.54 46.88 1.51 37.89 0.00 27.18 L 0.00 21.26 C 1.18 10.49 10.14 1.50 20.82 0.00 M 22.38 10.50 C 18.84 12.29 20.25 16.82 20.00 20.00 C 18.66 20.00 17.33 20.00 16.00 20.00 C 16.00 21.33 16.00 22.67 16.00 24.00 C 17.33 24.00 18.67 24.00 20.00 24.00 C 20.00 28.67 20.00 33.34 20.00 38.00 C 22.00 37.99 24.00 37.99 26.00 38.00 C 26.00 33.34 26.00 28.67 26.00 24.01 C 27.29 24.00 28.57 23.99 29.86 23.98 C 29.92 22.66 29.97 21.33 30.02 20.01 C 28.63 20.00 27.24 20.00 25.84 19.99 C 25.91 18.74 26.09 17.52 26.37 16.31 C 27.58 16.10 28.79 15.94 30.00 15.83 C 30.00 13.88 30.00 11.94 30.00 9.99 C 27.47 10.09 24.81 9.63 22.38 10.50 Z" />
</g>
<g id="#ffffffff">
<path fill="#ffffff" opacity="1.00" d=" M 22.38 10.50 C 24.81 9.63 27.47 10.09 30.00 9.99 C 30.00 11.94 30.00 13.88 30.00 15.83 C 28.79 15.94 27.58 16.10 26.37 16.31 C 26.09 17.52 25.91 18.74 25.84 19.99 C 27.24 20.00 28.63 20.00 30.02 20.01 C 29.97 21.33 29.92 22.66 29.86 23.98 C 28.57 23.99 27.29 24.00 26.00 24.01 C 26.00 28.67 26.00 33.34 26.00 38.00 C 24.00 37.99 22.00 37.99 20.00 38.00 C 20.00 33.34 20.00 28.67 20.00 24.00 C 18.67 24.00 17.33 24.00 16.00 24.00 C 16.00 22.67 16.00 21.33 16.00 20.00 C 17.33 20.00 18.66 20.00 20.00 20.00 C 20.25 16.82 18.84 12.29 22.38 10.50 Z" />
</g>
</svg>
