<?xml version="1.0" encoding="UTF-8" ?>
<!DOCTYPE svg PUBLIC "-//W3C//DTD SVG 1.1//EN" "http://www.w3.org/Graphics/SVG/1.1/DTD/svg11.dtd">
<svg width="48pt" height="48pt" viewBox="0 0 48 48" version="1.1" xmlns="http://www.w3.org/2000/svg">
<g id="#139bd0ff">
<path fill="#139bd0" opacity="1.00" d=" M 21.37 0.00 L 25.78 0.00 C 37.11 0.63 46.81 10.19 48.00 21.41 L 48.00 25.77 C 47.37 37.11 37.80 46.82 26.57 48.00 L 22.32 48.00 C 10.94 47.43 1.17 37.82 0.00 26.55 L 0.00 22.17 C 0.67 10.87 10.19 1.22 21.37 0.00 M 8.96 22.58 C 8.98 22.99 9.03 23.81 9.05 24.22 C 11.30 24.97 13.57 25.65 15.85 26.27 C 16.88 29.32 17.87 32.38 19.20 35.32 C 20.87 34.06 22.41 32.66 23.96 31.26 C 26.78 32.84 29.04 36.17 32.55 35.96 C 34.00 28.11 36.11 20.38 37.14 12.45 C 27.52 15.11 18.37 19.26 8.96 22.58 Z" />
<path fill="#139bd0" opacity="1.00" d=" M 17.87 25.55 C 22.78 22.71 27.34 19.31 32.34 16.61 C 28.57 20.11 24.70 23.50 20.90 26.96 C 19.47 28.03 19.87 30.02 19.45 31.55 C 18.99 29.53 18.36 27.56 17.87 25.55 Z" />
</g>
<g id="#ffffffff">
<path fill="#ffffff" opacity="1.00" d=" M 8.96 22.58 C 18.37 19.26 27.52 15.11 37.14 12.45 C 36.11 20.38 34.00 28.11 32.55 35.96 C 29.04 36.17 26.78 32.84 23.96 31.26 C 22.41 32.66 20.87 34.06 19.20 35.32 C 17.87 32.38 16.88 29.32 15.85 26.27 C 13.57 25.65 11.30 24.97 9.05 24.22 C 9.03 23.81 8.98 22.99 8.96 22.58 M 17.87 25.55 C 18.36 27.56 18.99 29.53 19.45 31.55 C 19.87 30.02 19.47 28.03 20.90 26.96 C 24.70 23.50 28.57 20.11 32.34 16.61 C 27.34 19.31 22.78 22.71 17.87 25.55 Z" />
</g>
</svg>
