<?xml version="1.0" encoding="UTF-8" ?>
<!DOCTYPE svg PUBLIC "-//W3C//DTD SVG 1.1//EN" "http://www.w3.org/Graphics/SVG/1.1/DTD/svg11.dtd">
<svg width="48pt" height="48pt" viewBox="0 0 48 48" version="1.1" xmlns="http://www.w3.org/2000/svg">
<g id="#7c519bff">
<path fill="#7c519b" opacity="1.00" d=" M 0.00 0.00 L 0.14 0.00 C 0.10 0.05 0.03 0.14 0.00 0.19 L 0.00 0.00 Z" />
<path fill="#7c519b" opacity="1.00" d=" M 20.62 0.00 L 26.61 0.00 C 37.37 1.09 46.33 10.00 48.00 20.60 L 48.00 26.64 C 46.86 37.58 37.60 46.85 26.66 48.00 L 20.76 48.00 C 10.09 46.45 1.13 37.44 0.00 26.66 L 0.00 20.78 C 1.50 10.29 10.17 1.62 20.62 0.00 M 14.18 13.17 C 9.77 15.82 9.78 21.55 9.99 26.07 C 9.61 30.50 12.12 35.21 16.56 36.47 C 16.70 37.94 16.34 39.56 17.15 40.89 C 19.36 41.28 20.26 38.60 21.69 37.42 C 26.27 37.30 31.59 37.58 35.22 34.30 C 38.53 31.09 38.03 26.16 38.00 21.96 C 38.12 17.96 36.03 13.50 31.95 12.29 C 26.24 10.43 19.58 10.36 14.18 13.17 Z" />
<path fill="#7c519b" opacity="1.00" d=" M 16.66 14.70 C 21.30 13.05 26.66 13.18 31.33 14.67 C 35.20 15.94 35.59 20.57 35.81 24.00 C 35.56 27.29 35.53 31.37 32.34 33.29 C 29.17 34.78 25.53 35.17 22.04 35.00 C 20.63 36.41 19.65 38.34 17.84 39.31 C 17.81 37.68 17.82 36.06 17.81 34.44 C 13.69 33.25 12.06 28.94 12.18 25.01 C 12.30 21.29 12.55 16.26 16.66 14.70 M 16.16 20.89 C 17.71 24.94 20.50 28.62 24.38 30.67 C 26.33 31.92 29.35 33.42 30.82 30.71 C 31.92 28.34 28.75 27.29 27.17 26.47 C 26.62 26.91 25.52 27.78 24.97 28.22 C 22.87 27.10 20.95 25.49 20.37 23.06 C 20.80 22.57 21.65 21.58 22.08 21.08 C 21.18 19.60 20.15 18.19 19.00 16.89 C 17.64 17.74 15.26 18.90 16.16 20.89 Z" />
</g>
<g id="#fefefeff">
<path fill="#fefefe" opacity="1.00" d=" M 14.18 13.17 C 19.58 10.36 26.24 10.43 31.95 12.29 C 36.03 13.50 38.12 17.96 38.00 21.96 C 38.03 26.16 38.53 31.09 35.22 34.30 C 31.59 37.58 26.27 37.30 21.69 37.42 C 20.26 38.60 19.36 41.28 17.15 40.89 C 16.34 39.56 16.70 37.94 16.56 36.47 C 12.12 35.21 9.61 30.50 9.99 26.07 C 9.78 21.55 9.77 15.82 14.18 13.17 M 16.66 14.70 C 12.55 16.26 12.30 21.29 12.18 25.01 C 12.06 28.94 13.69 33.25 17.81 34.44 C 17.82 36.06 17.81 37.68 17.84 39.31 C 19.65 38.34 20.63 36.41 22.04 35.00 C 25.53 35.17 29.17 34.78 32.34 33.29 C 35.53 31.37 35.56 27.29 35.81 24.00 C 35.59 20.57 35.20 15.94 31.33 14.67 C 26.66 13.18 21.30 13.05 16.66 14.70 Z" />
<path fill="#fefefe" opacity="1.00" d=" M 16.16 20.89 C 15.26 18.90 17.64 17.74 19.00 16.89 C 20.15 18.19 21.18 19.60 22.08 21.08 C 21.65 21.58 20.80 22.57 20.37 23.06 C 20.95 25.49 22.87 27.10 24.97 28.22 C 25.52 27.78 26.62 26.91 27.17 26.47 C 28.75 27.29 31.92 28.34 30.82 30.71 C 29.35 33.42 26.33 31.92 24.38 30.67 C 20.50 28.62 17.71 24.94 16.16 20.89 Z" />
</g>
</svg>
