<?xml version="1.0" encoding="UTF-8" ?>
<!DOCTYPE svg PUBLIC "-//W3C//DTD SVG 1.1//EN" "http://www.w3.org/Graphics/SVG/1.1/DTD/svg11.dtd">
<svg width="48pt" height="48pt" viewBox="0 0 48 48" version="1.1" xmlns="http://www.w3.org/2000/svg">
<g id="#537599ff">
<path fill="#537599" opacity="1.00" d=" M 21.32 0.00 L 26.05 0.00 C 37.24 0.75 46.81 10.21 48.00 21.31 L 48.00 26.05 C 47.24 37.35 37.59 47.05 26.33 48.00 L 21.68 48.00 C 10.49 47.07 0.94 37.50 0.00 26.32 L 0.00 21.65 C 0.95 10.58 10.30 1.18 21.32 0.00 M 18.93 16.70 C 19.46 17.27 20.51 18.42 21.04 18.99 C 20.53 20.52 21.90 23.95 19.49 23.89 C 17.85 21.80 16.75 19.37 15.58 17.01 C 13.63 17.06 11.69 17.08 9.74 17.05 C 11.03 21.62 13.63 25.75 16.70 29.33 C 18.91 31.94 22.51 32.85 25.82 32.48 C 26.53 31.27 26.97 29.96 27.13 28.54 C 28.57 29.61 29.87 30.84 31.27 31.96 C 33.43 33.21 36.01 32.24 38.35 32.33 C 37.82 29.54 35.34 27.96 33.72 25.86 C 34.34 22.64 37.90 20.57 38.27 17.09 C 36.05 17.08 33.83 17.05 31.61 17.01 C 30.35 19.72 29.01 22.45 26.84 24.57 C 26.09 21.86 27.57 18.50 25.82 16.19 C 23.51 15.70 21.15 15.97 18.93 16.70 Z" />
</g>
<g id="#ffffffff">
<path fill="#ffffff" opacity="1.00" d=" M 18.93 16.70 C 21.15 15.97 23.51 15.70 25.82 16.19 C 27.57 18.50 26.09 21.86 26.84 24.57 C 29.01 22.45 30.35 19.72 31.61 17.01 C 33.83 17.05 36.05 17.08 38.27 17.09 C 37.90 20.57 34.34 22.64 33.72 25.86 C 35.34 27.96 37.82 29.54 38.35 32.33 C 36.01 32.24 33.43 33.21 31.27 31.96 C 29.87 30.84 28.57 29.61 27.13 28.54 C 26.97 29.96 26.53 31.27 25.82 32.48 C 22.51 32.85 18.91 31.94 16.70 29.33 C 13.63 25.75 11.03 21.62 9.74 17.05 C 11.69 17.08 13.63 17.06 15.58 17.01 C 16.75 19.37 17.85 21.80 19.49 23.89 C 21.90 23.95 20.53 20.52 21.04 18.99 C 20.51 18.42 19.46 17.27 18.93 16.70 Z" />
</g>
</svg>
