<?xml version="1.0" encoding="UTF-8" ?>
<!DOCTYPE svg PUBLIC "-//W3C//DTD SVG 1.1//EN" "http://www.w3.org/Graphics/SVG/1.1/DTD/svg11.dtd">
<svg width="48pt" height="48pt" viewBox="0 0 48 48" version="1.1" xmlns="http://www.w3.org/2000/svg">
<g id="#57bb63ff">
<path fill="#57bb63" opacity="1.00" d=" M 21.54 0.00 L 25.91 0.00 C 37.22 0.68 46.95 10.30 48.00 21.54 L 48.00 25.93 C 47.30 37.31 37.55 47.11 26.21 48.00 L 21.89 48.00 C 10.58 47.19 0.89 37.49 0.00 26.21 L 0.00 21.89 C 0.81 10.66 10.36 1.05 21.54 0.00 M 11.83 30.94 C 11.15 33.33 10.52 35.72 9.91 38.12 C 12.40 37.56 14.88 36.94 17.35 36.31 C 24.73 40.49 34.87 36.37 37.39 28.34 C 40.65 19.71 33.24 9.26 23.95 9.95 C 13.58 9.35 6.36 22.22 11.83 30.94 Z" />
<path fill="#57bb63" opacity="1.00" d=" M 14.70 30.61 C 10.10 24.13 13.93 13.79 22.02 12.73 C 29.15 11.14 36.42 17.75 35.30 25.01 C 34.95 33.38 24.46 37.99 17.66 33.48 C 16.33 33.76 15.00 34.06 13.67 34.37 C 14.02 33.12 14.37 31.87 14.70 30.61 M 19.00 17.13 C 16.66 18.32 16.36 21.47 17.67 23.52 C 19.85 27.17 23.46 30.30 27.81 30.80 C 29.88 30.76 31.24 29.09 31.35 27.11 C 30.09 26.50 28.84 25.89 27.59 25.27 C 27.12 25.79 26.18 26.83 25.72 27.35 C 23.65 26.38 21.96 24.84 20.65 22.99 C 21.01 22.51 21.72 21.55 22.08 21.07 C 21.17 19.68 21.15 17.01 19.00 17.13 Z" />
</g>
<g id="#fefffeff">
<path fill="#fefffe" opacity="1.00" d=" M 11.83 30.94 C 6.36 22.22 13.58 9.35 23.95 9.95 C 33.24 9.26 40.65 19.71 37.39 28.34 C 34.87 36.37 24.73 40.49 17.35 36.31 C 14.88 36.94 12.40 37.56 9.91 38.12 C 10.52 35.72 11.15 33.33 11.83 30.94 M 14.70 30.61 C 14.37 31.87 14.02 33.12 13.67 34.37 C 15.00 34.06 16.33 33.76 17.66 33.48 C 24.46 37.99 34.95 33.38 35.30 25.01 C 36.42 17.75 29.15 11.14 22.02 12.73 C 13.93 13.79 10.10 24.13 14.70 30.61 Z" />
<path fill="#fefffe" opacity="1.00" d=" M 19.00 17.13 C 21.15 17.01 21.17 19.68 22.08 21.07 C 21.72 21.55 21.01 22.51 20.65 22.99 C 21.96 24.84 23.65 26.38 25.72 27.35 C 26.18 26.83 27.12 25.79 27.59 25.27 C 28.84 25.89 30.09 26.50 31.35 27.11 C 31.24 29.09 29.88 30.76 27.81 30.80 C 23.46 30.30 19.85 27.17 17.67 23.52 C 16.36 21.47 16.66 18.32 19.00 17.13 Z" />
</g>
</svg>
